<?xml version="1.0" ?>
<!-- Uploaded to: SVG Repo, www.svgrepo.com, Generator: SVG Repo Mixer Tools -->
<svg width="800px" height="800px" viewBox="0 0 512 512" id="Layer_1" version="1.1" xml:space="preserve" xmlns="http://www.w3.org/2000/svg" xmlns:xlink="http://www.w3.org/1999/xlink">
<style type="text/css">
	.st0{fill:#69C9C9;}
	.st1{fill:#4D5152;}
</style>
<polygon class="st0" points="284.9,336.5 227.1,336.5 256,379.7 "/>
<g>
<path class="st1" d="M266,228.6h-20v87.9h-56.4l66.4,99.1l66.4-99.1H266V228.6z M284.9,336.5L256,379.7l-28.9-43.2H284.9z"/>
<path class="st1" d="M472.8,245.3c-20-20-46.4-29.7-72.6-29.2c-5.3-29.2-19.2-55.7-40.5-76.9c-57.1-57.1-150.1-57.1-207.3,0   c-21.5,21.5-35.2,48.4-40.5,76.9c-27.1-0.6-53.2,9.8-72.6,29.2c-38.9,38.9-38.9,102.2,0,141.2c19.5,19.5,45,29.2,70.6,29.2   c25.6,0,51.1-9.7,70.6-29.2l-14.1-14.1c-31.1,31.1-81.8,31.1-112.9,0c-31.1-31.1-31.1-81.8,0-112.9c15.1-15.1,35.2-23.3,56.2-23.4   c-1,20.7,2.5,41.8,10.6,61.9l18.5-7.5c-19.2-47.3-8.2-101.1,27.8-137.1c49.3-49.3,129.6-49.3,179,0c18.1,18.1,29.9,40.5,34.7,65.2   c-17.8,4-34.8,12.9-48.6,26.8l14.1,14.1c31.1-31.1,81.8-31.1,112.9,0c31.1,31.1,31.1,81.8,0,112.9c-31.1,31.1-81.8,31.1-112.9,0   l-14.1,14.1c19.5,19.5,45,29.2,70.6,29.2s51.1-9.7,70.6-29.2C511.7,347.5,511.7,284.2,472.8,245.3z"/>
<rect class="st1" height="20" width="20" x="246" y="188.6"/>
</g>
</svg>